<svg width="226.18876953125px" height="92.0375px" xmlns="http://www.w3.org/2000/svg" viewBox="136.905615234375 28.981250000000003 226.18876953125 92.0375" style="background: rgba(0, 0, 0, 0);" preserveAspectRatio="xMidYMid"><defs><filter id="editing-extrude-glow"><feFlood flood-color="#000000" result="flood-1"></feFlood><feMorphology operator="erode" radius="1" in="SourceAlpha" result="erode"></feMorphology><feComposite operator="in" in="flood-1" in2="erode" result="comp1"></feComposite><feConvolveMatrix order="2,2" divisor="1" in="comp1" result="convolve" kernelMatrix="0 0 1 1"></feConvolveMatrix><feOffset dx="-2" dy="0" in="convolve" result="extrude"></feOffset><feComposite operator="in" in="flood-1" in2="extrude" result="comp-extrude"></feComposite><feFlood flood-color="rgba(0%,0%,0%,0)" result="flood-2"></feFlood><feComposite operator="in" in="flood-2" in2="SourceAlpha" result="comp2"></feComposite><feMorphology operator="dilate" radius="1" in="comp2" result="dilate"></feMorphology><feOffset dx="-3" dy="0" in="dilate" result="offset"></feOffset><feGaussianBlur in="offset" stdDeviation="5.8" result="blur"></feGaussianBlur><feComponentTransfer in="blur" result="shadow"><feFuncA type="linear" slope="0.8" intercept="-0.2"></feFuncA></feComponentTransfer><feMerge><feMergeNode in="shadow"></feMergeNode><feMergeNode in="comp-extrude"></feMergeNode><feMergeNode in="SourceGraphic"></feMergeNode></feMerge></filter></defs><g filter="url(#editing-extrude-glow)"><g transform="translate(173.96843838691711, 84.85499954223633)"><path d="M15.18-14.03L15.18-14.03L15.18-14.03Q15.18-11.37 13.40-9.76L13.40-9.76L13.40-9.76Q11.62-8.14 8.73-8.14L8.73-8.14L8.73-8.14Q7.94-8.14 7.47-8.38L7.47-8.38L7.47-8.38Q7.06-8.66 7.06-9.02L7.06-9.02L7.06-9.02Q7.06-9.05 7.08-9.09L7.08-9.09L7.08-9.09Q7.09-9.13 7.12-9.16L7.12-9.16L7.12-9.16Q7.15-9.18 7.21-9.17L7.21-9.17L7.21-9.17Q7.95-8.96 8.32-8.96L8.32-8.96L8.32-8.96Q10.14-8.96 11.31-10.18L11.31-10.18L11.31-10.18Q12.48-11.40 12.48-13.54L12.48-13.54L12.48-13.54Q12.48-15.78 11.25-17.07L11.25-17.07L11.25-17.07Q10.02-18.37 7.65-18.37L7.65-18.37L7.65-18.37Q6.31-18.37 6.18-18.08L6.18-18.08L6.18-18.08Q6.04-17.72 6.04-15.88L6.04-15.88L6.04-3.40L6.04-3.40Q6.04-1.70 6.18-1.23L6.18-1.23L6.18-1.23Q6.24-1.03 7.00-0.89L7.00-0.89L7.00-0.89Q7.76-0.76 8.20-0.76L8.20-0.76L8.20-0.76Q8.29-0.64 8.30-0.34L8.30-0.34L8.30-0.34Q8.31-0.03 8.20 0.09L8.20 0.09L8.20 0.09Q5.20-0.06 4.78-0.06L4.78-0.06L4.78-0.06Q4.32-0.06 1.32 0.09L1.32 0.09L1.32 0.09Q1.22-0.03 1.22-0.34L1.22-0.34L1.22-0.34Q1.23-0.64 1.32-0.76L1.32-0.76L1.32-0.76Q1.76-0.76 2.52-0.89L2.52-0.89L2.52-0.89Q3.28-1.03 3.34-1.23L3.34-1.23L3.34-1.23Q3.49-1.70 3.49-3.40L3.49-3.40L3.49-15.91L3.49-15.91Q3.49-17.61 3.34-18.08L3.34-18.08L3.34-18.08Q3.28-18.28 2.52-18.41L2.52-18.41L2.52-18.41Q1.76-18.54 1.32-18.54L1.32-18.54L1.32-18.54Q1.23-18.66 1.22-18.97L1.22-18.97L1.22-18.97Q1.22-19.28 1.32-19.39L1.32-19.39L1.32-19.39Q4.32-19.25 4.78-19.25L4.78-19.25L4.78-19.25Q5.27-19.25 6.64-19.28L6.64-19.28L6.64-19.28Q8.00-19.31 8.94-19.31L8.94-19.31L8.94-19.31Q10.53-19.31 11.93-18.71L11.93-18.71L11.93-18.71Q13.33-18.12 14.25-16.89L14.25-16.89L14.25-16.89Q15.18-15.66 15.18-14.03ZM24.95-12.80L24.95-12.80L24.95-12.80Q25.52-12.80 26.02-12.55L26.02-12.55L26.02-12.55Q26.53-12.30 26.73-11.95L26.73-11.95L26.73-11.95Q26.85-11.60 26.85-11.16L26.85-11.16L26.85-11.16Q26.85-10.44 26.51-10.04L26.51-10.04L26.51-10.04Q26.18-9.64 25.88-9.64L25.88-9.64L25.88-9.64Q25.69-9.64 25.52-9.72L25.52-9.72L25.52-9.72Q25.36-9.80 25.10-9.98L25.10-9.98L25.10-9.98Q24.84-10.17 24.80-10.20L24.80-10.20L24.80-10.20Q24.27-10.55 23.72-10.55L23.72-10.55L23.72-10.55Q22.87-10.55 22.12-9.54L22.12-9.54L22.12-9.54Q21.37-8.54 21.37-7.91L21.37-7.91L21.37-3.40L21.37-3.40Q21.37-1.70 21.52-1.23L21.52-1.23L21.52-1.23Q21.58-1.03 22.55-0.89L22.55-0.89L22.55-0.89Q23.53-0.76 24.04-0.76L24.04-0.76L24.04-0.76Q24.13-0.64 24.13-0.34L24.13-0.34L24.13-0.34Q24.14-0.03 24.04 0.09L24.04 0.09L24.04 0.09Q21.04-0.06 20.41-0.06L20.41-0.06L20.41-0.06Q20.13-0.06 17.12 0.09L17.12 0.09L17.12 0.09Q17.02-0.03 17.03-0.34L17.03-0.34L17.03-0.34Q17.04-0.64 17.12-0.76L17.12-0.76L17.12-0.76Q17.55-0.76 18.23-0.89L18.23-0.89L18.23-0.89Q18.91-1.03 18.97-1.23L18.97-1.23L18.97-1.23Q19.09-1.60 19.12-3.40L19.12-3.40L19.12-8.85L19.12-8.85Q19.12-10.02 18.97-10.37L18.97-10.37L18.97-10.37Q18.88-10.59 18.41-10.72L18.41-10.72L18.41-10.72Q17.94-10.85 17.63-10.88L17.63-10.88L17.63-10.88Q17.31-10.90 17.07-10.90L17.07-10.90L17.07-10.90Q17.01-10.96 17.00-11.25L17.00-11.25L17.00-11.25Q16.99-11.54 17.07-11.66L17.07-11.66L17.07-11.66Q19.57-12.00 21.25-12.89L21.25-12.89L21.25-12.89Q21.36-12.89 21.47-12.71L21.47-12.71L21.47-12.71Q21.58-12.54 21.58-12.42L21.58-12.42L21.58-12.42Q21.55-12.25 21.46-11.10L21.46-11.10L21.46-11.10Q21.37-9.95 21.37-9.73L21.37-9.73L21.37-9.73Q21.37-9.67 21.40-9.65L21.40-9.65L21.40-9.65Q21.43-9.62 21.45-9.63L21.45-9.63L21.45-9.63Q21.47-9.64 21.49-9.67L21.49-9.67L21.49-9.67Q21.99-10.75 23.01-11.78L23.01-11.78L23.01-11.78Q24.04-12.80 24.95-12.80ZM30.67-8.35L30.67-8.35L30.67-8.35Q30.67-8.35 35.45-8.35L35.45-8.35L35.45-8.35Q36.08-8.35 36.12-9.02L36.12-9.02L36.12-9.02Q36.14-9.32 36.01-9.76L36.01-9.76L36.01-9.76Q35.87-10.20 35.61-10.66L35.61-10.66L35.61-10.66Q35.35-11.13 34.85-11.46L34.85-11.46L34.85-11.46Q34.35-11.78 33.72-11.78L33.72-11.78L33.72-11.78Q33.03-11.78 32.46-11.43L32.46-11.43L32.46-11.43Q31.89-11.07 31.56-10.57L31.56-10.57L31.56-10.57Q31.23-10.06 31.02-9.56L31.02-9.56L31.02-9.56Q30.81-9.05 30.73-8.70L30.73-8.70L30.73-8.70Q30.64-8.35 30.67-8.35ZM30.53-7.27L30.53-7.27L30.53-7.27Q30.47-4.58 31.85-3.11L31.85-3.11L31.85-3.11Q33.24-1.64 35.30-1.64L35.30-1.64L35.30-1.64Q36.36-1.64 37.21-2.15L37.21-2.15L37.21-2.15Q38.07-2.67 38.53-3.19L38.53-3.19L38.53-3.19Q38.54-3.19 38.60-3.14L38.60-3.14L38.60-3.14Q38.66-3.09 38.71-2.99L38.71-2.99L38.71-2.99Q38.76-2.89 38.76-2.78L38.76-2.78L38.76-2.78Q38.76-2.55 38.58-2.26L38.58-2.26L38.58-2.26Q38.35-1.88 38.00-1.49L38.00-1.49L38.00-1.49Q37.65-1.11 37.12-0.70L37.12-0.70L37.12-0.70Q36.59-0.29 35.85-0.03L35.85-0.03L35.85-0.03Q35.11 0.23 34.31 0.23L34.31 0.23L34.31 0.23Q31.74 0.23 30.10-1.50L30.10-1.50L30.10-1.50Q28.45-3.24 28.45-5.86L28.45-5.86L28.45-5.86Q28.45-7.28 28.99-8.60L28.99-8.60L28.99-8.60Q29.53-9.92 30.37-10.83L30.37-10.83L30.37-10.83Q31.20-11.73 32.23-12.28L32.23-12.28L32.23-12.28Q33.25-12.83 34.22-12.83L34.22-12.83L34.22-12.83Q35.21-12.83 36.02-12.52L36.02-12.52L36.02-12.52Q36.83-12.22 37.29-11.77L37.29-11.77L37.29-11.77Q37.76-11.32 38.07-10.75L38.07-10.75L38.07-10.75Q38.38-10.18 38.50-9.71L38.50-9.71L38.50-9.71Q38.61-9.24 38.61-8.85L38.61-8.85L38.61-8.85Q38.61-8.17 38.46-7.83L38.46-7.83L38.46-7.83Q38.31-7.49 37.91-7.47L37.91-7.47L37.91-7.47Q37.31-7.43 34.11-7.35L34.11-7.35L34.11-7.35Q30.91-7.27 30.53-7.27ZM45.59-12.80L45.59-12.80L45.59-12.80Q46.25-12.80 47.21-12.63L47.21-12.63L47.21-12.63Q48.18-12.47 48.57-12.42L48.57-12.42L48.57-12.42Q48.87-11.10 48.93-9.20L48.93-9.20L48.93-9.20Q48.93-9.05 48.63-9.05L48.63-9.05L48.63-9.05Q48.31-9.05 48.13-9.20L48.13-9.20L48.13-9.20Q47.87-10.18 47.20-11.04L47.20-11.04L47.20-11.04Q46.52-11.89 45.67-11.89L45.67-11.89L45.67-11.89Q44.66-11.89 44.13-11.38L44.13-11.38L44.13-11.38Q43.59-10.87 43.59-10.05L43.59-10.05L43.59-10.05Q43.59-9.68 43.70-9.37L43.70-9.37L43.70-9.37Q43.81-9.05 43.95-8.85L43.95-8.85L43.95-8.85Q44.08-8.64 44.39-8.39L44.39-8.39L44.39-8.39Q44.71-8.14 44.88-8.03L44.88-8.03L44.88-8.03Q45.06-7.91 45.51-7.65L45.51-7.65L45.51-7.65Q45.97-7.40 46.14-7.29L46.14-7.29L46.14-7.29Q46.27-7.22 46.73-6.96L46.73-6.96L46.73-6.96Q47.18-6.69 47.40-6.56L47.40-6.56L47.40-6.56Q47.61-6.42 48.01-6.15L48.01-6.15L48.01-6.15Q48.41-5.87 48.62-5.65L48.62-5.65L48.62-5.65Q48.82-5.42 49.06-5.10L49.06-5.10L49.06-5.10Q49.31-4.79 49.41-4.45L49.41-4.45L49.41-4.45Q49.51-4.10 49.51-3.72L49.51-3.72L49.51-3.72Q49.51-1.98 48.17-0.83L48.17-0.83L48.17-0.83Q46.83 0.32 45 0.32L45 0.32L45 0.32Q44.40 0.32 43.88 0.24L43.88 0.24L43.88 0.24Q43.36 0.16 42.66 0L42.66 0L42.66 0Q41.97-0.16 41.57-0.23L41.57-0.23L41.57-0.23Q41.40-0.69 41.24-1.69L41.24-1.69L41.24-1.69Q41.07-2.70 41.07-3.28L41.07-3.28L41.07-3.28Q41.31-3.46 41.60-3.46L41.60-3.46L41.60-3.46Q41.78-3.46 41.87-3.40L41.87-3.40L41.87-3.40Q42.16-2.36 43.05-1.49L43.05-1.49L43.05-1.49Q43.95-0.62 45.03-0.62L45.03-0.62L45.03-0.62Q45.95-0.62 46.55-1.18L46.55-1.18L46.55-1.18Q47.14-1.74 47.14-2.72L47.14-2.72L47.14-2.72Q47.14-3.24 46.96-3.65L46.96-3.65L46.96-3.65Q46.77-4.06 46.35-4.41L46.35-4.41L46.35-4.41Q45.92-4.76 45.59-4.97L45.59-4.97L45.59-4.97Q45.25-5.19 44.56-5.54L44.56-5.54L44.56-5.54Q43.87-5.90 43.56-6.09L43.56-6.09L43.56-6.09Q42.54-6.68 41.94-7.42L41.94-7.42L41.94-7.42Q41.34-8.16 41.34-9.23L41.34-9.23L41.34-9.23Q41.34-10.80 42.61-11.80L42.61-11.80L42.61-11.80Q43.89-12.80 45.59-12.80ZM54.08-8.35L54.08-8.35L54.08-8.35Q54.08-8.35 58.86-8.35L58.86-8.35L58.86-8.35Q59.49-8.35 59.53-9.02L59.53-9.02L59.53-9.02Q59.55-9.32 59.41-9.76L59.41-9.76L59.41-9.76Q59.28-10.20 59.02-10.66L59.02-10.66L59.02-10.66Q58.75-11.13 58.26-11.46L58.26-11.46L58.26-11.46Q57.76-11.78 57.13-11.78L57.13-11.78L57.13-11.78Q56.44-11.78 55.87-11.43L55.87-11.43L55.87-11.43Q55.30-11.07 54.97-10.57L54.97-10.57L54.97-10.57Q54.64-10.06 54.43-9.56L54.43-9.56L54.43-9.56Q54.21-9.05 54.13-8.70L54.13-8.70L54.13-8.70Q54.05-8.35 54.08-8.35ZM53.94-7.27L53.94-7.27L53.94-7.27Q53.88-4.58 55.26-3.11L55.26-3.11L55.26-3.11Q56.65-1.64 58.71-1.64L58.71-1.64L58.71-1.64Q59.77-1.64 60.62-2.15L60.62-2.15L60.62-2.15Q61.48-2.67 61.93-3.19L61.93-3.19L61.93-3.19Q61.95-3.19 62.01-3.14L62.01-3.14L62.01-3.14Q62.07-3.09 62.12-2.99L62.12-2.99L62.12-2.99Q62.17-2.89 62.17-2.78L62.17-2.78L62.17-2.78Q62.17-2.55 61.99-2.26L61.99-2.26L61.99-2.26Q61.76-1.88 61.41-1.49L61.41-1.49L61.41-1.49Q61.05-1.11 60.53-0.70L60.53-0.70L60.53-0.70Q60-0.29 59.26-0.03L59.26-0.03L59.26-0.03Q58.52 0.23 57.71 0.23L57.71 0.23L57.71 0.23Q55.15 0.23 53.50-1.50L53.50-1.50L53.50-1.50Q51.86-3.24 51.86-5.86L51.86-5.86L51.86-5.86Q51.86-7.28 52.40-8.60L52.40-8.60L52.40-8.60Q52.94-9.92 53.77-10.83L53.77-10.83L53.77-10.83Q54.61-11.73 55.63-12.28L55.63-12.28L55.63-12.28Q56.66-12.83 57.63-12.83L57.63-12.83L57.63-12.83Q58.62-12.83 59.43-12.52L59.43-12.52L59.43-12.52Q60.23-12.22 60.70-11.77L60.70-11.77L60.70-11.77Q61.17-11.32 61.48-10.75L61.48-10.75L61.48-10.75Q61.79-10.18 61.90-9.71L61.90-9.71L61.90-9.71Q62.02-9.24 62.02-8.85L62.02-8.85L62.02-8.85Q62.02-8.17 61.87-7.83L61.87-7.83L61.87-7.83Q61.71-7.49 61.32-7.47L61.32-7.47L61.32-7.47Q60.72-7.43 57.52-7.35L57.52-7.35L57.52-7.35Q54.32-7.27 53.94-7.27ZM72.73-12.83L72.73-12.83L72.73-12.83Q73.68-12.83 74.34-12.58L74.34-12.58L74.34-12.58Q75-12.33 75.42-11.88L75.42-11.88L75.42-11.88Q75.85-11.43 76.09-10.63L76.09-10.63L76.09-10.63Q76.33-9.84 76.42-8.91L76.42-8.91L76.42-8.91Q76.51-7.97 76.51-6.62L76.51-6.62L76.51-3.40L76.51-3.40Q76.51-1.70 76.66-1.23L76.66-1.23L76.66-1.23Q76.71-1.03 77.40-0.89L77.40-0.89L77.40-0.89Q78.08-0.76 78.50-0.76L78.50-0.76L78.50-0.76Q78.59-0.64 78.60-0.34L78.60-0.34L78.60-0.34Q78.60-0.03 78.50 0.09L78.50 0.09L78.50 0.09Q75.50-0.06 75.37-0.06L75.37-0.06L75.37-0.06Q74.85-0.06 74.38-0.04L74.38-0.04L74.38-0.04Q73.90-0.01 73.29 0.03L73.29 0.03L73.29 0.03Q72.67 0.07 72.26 0.09L72.26 0.09L72.26 0.09Q72.16-0.03 72.17-0.34L72.17-0.34L72.17-0.34Q72.17-0.64 72.26-0.76L72.26-0.76L72.26-0.76Q72.69-0.76 73.37-0.89L73.37-0.89L73.37-0.89Q74.05-1.03 74.11-1.23L74.11-1.23L74.11-1.23Q74.25-1.70 74.25-3.40L74.25-3.40L74.25-6.33L74.25-6.33Q74.25-9.10 73.66-10.11L73.66-10.11L73.66-10.11Q73.07-11.13 71.38-11.13L71.38-11.13L71.38-11.13Q70.88-11.13 70.20-10.78L70.20-10.78L70.20-10.78Q69.52-10.43 69.06-10.05L69.06-10.05L69.06-10.05Q68.60-9.67 68.60-9.52L68.60-9.52L68.60-3.40L68.60-3.40Q68.60-1.70 68.75-1.23L68.75-1.23L68.75-1.23Q68.80-1.03 69.48-0.89L69.48-0.89L69.48-0.89Q70.17-0.76 70.59-0.76L70.59-0.76L70.59-0.76Q70.68-0.64 70.69-0.34L70.69-0.34L70.69-0.34Q70.69-0.03 70.59 0.09L70.59 0.09L70.59 0.09Q67.59-0.06 67.46-0.06L67.46-0.06L67.46-0.06Q66.94-0.06 66.47-0.04L66.47-0.04L66.47-0.04Q65.99-0.01 65.38 0.03L65.38 0.03L65.38 0.03Q64.76 0.07 64.35 0.09L64.35 0.09L64.35 0.09Q64.25-0.03 64.26-0.34L64.26-0.34L64.26-0.34Q64.26-0.64 64.35-0.76L64.35-0.76L64.35-0.76Q64.78-0.76 65.46-0.89L65.46-0.89L65.46-0.89Q66.14-1.03 66.20-1.23L66.20-1.23L66.20-1.23Q66.34-1.70 66.34-3.40L66.34-3.40L66.34-8.73L66.34-8.73Q66.34-10.02 66.20-10.37L66.20-10.37L66.20-10.37Q66.11-10.59 65.64-10.72L65.64-10.72L65.64-10.72Q65.17-10.85 64.86-10.88L64.86-10.88L64.86-10.88Q64.54-10.90 64.29-10.90L64.29-10.90L64.29-10.90Q64.23-10.96 64.23-11.25L64.23-11.25L64.23-11.25Q64.22-11.54 64.29-11.66L64.29-11.66L64.29-11.66Q66.80-12.00 68.48-12.89L68.48-12.89L68.48-12.89Q68.58-12.89 68.69-12.71L68.69-12.71L68.69-12.71Q68.80-12.54 68.80-12.42L68.80-12.42L68.80-12.42Q68.63-11.19 68.63-10.75L68.63-10.75L68.63-10.75Q68.63-10.63 68.69-10.63L68.69-10.63L68.69-10.63Q68.72-10.63 68.77-10.69L68.77-10.69L68.77-10.69Q69.36-11.34 70.58-12.08L70.58-12.08L70.58-12.08Q71.79-12.83 72.73-12.83ZM83.55-16.49L83.55-12.66L87.33-12.66L87.33-12.66Q87.48-12.66 87.48-12.33L87.48-12.33L87.48-12.33Q87.48-11.87 87.07-11.46L87.07-11.46L83.55-11.46L83.55-3.78L83.55-3.78Q83.55-1.38 85.49-1.38L85.49-1.38L85.49-1.38Q86.46-1.38 87.39-2.05L87.39-2.05L87.39-2.05Q87.48-2.01 87.48-1.85L87.48-1.85L87.48-1.85Q87.48-1.52 87.36-1.41L87.36-1.41L87.36-1.41Q87.07-1.08 86.71-0.77L86.71-0.77L86.71-0.77Q86.35-0.45 85.68-0.12L85.68-0.12L85.68-0.12Q85.00 0.21 84.35 0.21L84.35 0.21L84.35 0.21Q83.75 0.21 83.23 0.06L83.23 0.06L83.23 0.06Q82.72-0.09 82.27-0.42L82.27-0.42L82.27-0.42Q81.81-0.76 81.56-1.41L81.56-1.41L81.56-1.41Q81.30-2.05 81.30-2.96L81.30-2.96L81.30-11.46L79.60-11.46L79.60-11.46Q79.45-11.46 79.45-11.72L79.45-11.72L79.45-11.72Q79.45-11.79 79.78-12.17L79.78-12.17L79.78-12.17Q80.10-12.54 80.21-12.66L80.21-12.66L81.30-12.66L81.30-14.50L81.30-14.50Q81.53-14.78 81.97-15.26L81.97-15.26L81.97-15.26Q82.41-15.73 82.73-16.08L82.73-16.08L82.73-16.08Q83.06-16.44 83.09-16.46L83.09-16.46L83.09-16.46Q83.16-16.54 83.27-16.57L83.27-16.57L83.27-16.57Q83.38-16.60 83.47-16.57L83.47-16.57L83.47-16.57Q83.55-16.55 83.55-16.49L83.55-16.49ZM93.46-1.35L93.46-1.35L93.46-1.35Q94.17-1.35 95.09-1.82L95.09-1.82L95.09-1.82Q96.01-2.30 96.01-2.55L96.01-2.55L96.01-6.53L96.01-6.53Q93.74-5.86 93.28-5.68L93.28-5.68L93.28-5.68Q92.45-5.36 91.97-4.78L91.97-4.78L91.97-4.78Q91.49-4.20 91.49-3.40L91.49-3.40L91.49-3.40Q91.49-2.58 92.07-1.96L92.07-1.96L92.07-1.96Q92.64-1.35 93.46-1.35ZM95.04-12.77L95.04-12.77L95.04-12.77Q96.31-12.77 97.27-11.60L97.27-11.60L97.27-11.60Q98.23-10.43 98.23-8.76L98.23-8.76L98.23-2.72L98.23-2.72Q98.23-1.35 99.14-1.35L99.14-1.35L99.14-1.35Q99.27-1.35 99.40-1.37L99.40-1.37L99.40-1.37Q99.52-1.39 99.61-1.43L99.61-1.43L99.61-1.43Q99.70-1.46 99.79-1.52L99.79-1.52L99.79-1.52Q99.89-1.57 99.94-1.60L99.94-1.60L99.94-1.60Q99.99-1.64 100.04-1.68L100.04-1.68L100.04-1.68Q100.09-1.73 100.11-1.73L100.11-1.73L100.11-1.73Q100.22-1.73 100.22-1.49L100.22-1.49L100.22-1.49Q100.22-1.19 100.08-0.94L100.08-0.94L100.08-0.94Q99.74-0.63 99.02-0.23L99.02-0.23L99.02-0.23Q98.29 0.18 97.88 0.18L97.88 0.18L97.88 0.18Q97.27 0.18 96.75-0.42L96.75-0.42L96.75-0.42Q96.24-1.01 96.09-1.73L96.09-1.73L96.09-1.73Q95.67-1.30 94.42-0.53L94.42-0.53L94.42-0.53Q93.16 0.23 92.49 0.23L92.49 0.23L92.49 0.23Q91.04 0.23 90.05-0.74L90.05-0.74L90.05-0.74Q89.06-1.71 89.06-3.13L89.06-3.13L89.06-3.13Q89.06-3.97 89.52-4.62L89.52-4.62L89.52-4.62Q89.99-5.27 90.53-5.48L90.53-5.48L90.53-5.48Q91.01-5.65 92.29-6.09L92.29-6.09L92.29-6.09Q93.56-6.53 94.42-6.84L94.42-6.84L94.42-6.84Q95.27-7.15 95.65-7.32L95.65-7.32L95.65-7.32Q95.87-7.41 95.94-7.54L95.94-7.54L95.94-7.54Q96.01-7.68 96.01-8.06L96.01-8.06L96.01-8.85L96.01-8.85Q96.01-9.89 95.27-10.77L95.27-10.77L95.27-10.77Q94.53-11.66 93.49-11.66L93.49-11.66L93.49-11.66Q92.75-11.66 92.40-11.21L92.40-11.21L92.40-11.21Q92.04-10.77 91.88-9.84L91.88-9.84L91.88-9.84Q91.63-8.44 90.50-8.44L90.50-8.44L90.50-8.44Q90.06-8.44 89.78-8.82L89.78-8.82L89.78-8.82Q89.50-9.20 89.50-9.67L89.50-9.67L89.50-9.67Q89.50-9.79 89.57-10.03L89.57-10.03L89.57-10.03Q89.63-10.27 89.71-10.37L89.71-10.37L89.71-10.37Q90.62-11.22 92.12-12.00L92.12-12.00L92.12-12.00Q93.62-12.77 95.04-12.77ZM111.80-11.31L111.80-11.31L111.80-11.31Q111.80-10.59 111.46-10.25L111.46-10.25L111.46-10.25Q111.12-9.90 110.68-9.90L110.68-9.90L110.68-9.90Q110.39-9.90 110.10-10.09L110.10-10.09L110.10-10.09Q109.80-10.28 109.48-10.58L109.48-10.58L109.48-10.58Q109.15-10.88 108.98-10.99L108.98-10.99L108.98-10.99Q108.49-11.32 108.17-11.43L108.17-11.43L108.17-11.43Q107.86-11.54 107.31-11.54L107.31-11.54L107.31-11.54Q106.05-11.54 105.04-10.19L105.04-10.19L105.04-10.19Q104.03-8.83 104.03-6.65L104.03-6.65L104.03-6.65Q104.03-4.19 105.36-2.94L105.36-2.94L105.36-2.94Q106.68-1.70 108.78-1.70L108.78-1.70L108.78-1.70Q109.83-1.70 110.63-2.18L110.63-2.18L110.63-2.18Q111.43-2.67 111.88-3.19L111.88-3.19L111.88-3.19Q111.90-3.19 111.96-3.14L111.96-3.14L111.96-3.14Q112.02-3.09 112.07-2.99L112.07-2.99L112.07-2.99Q112.12-2.89 112.12-2.78L112.12-2.78L112.12-2.78Q112.12-2.55 111.94-2.26L111.94-2.26L111.94-2.26Q111.71-1.88 111.36-1.49L111.36-1.49L111.36-1.49Q111.01-1.11 110.48-0.70L110.48-0.70L110.48-0.70Q109.95-0.29 109.21-0.03L109.21-0.03L109.21-0.03Q108.47 0.23 107.67 0.23L107.67 0.23L107.67 0.23Q105.95 0.23 104.58-0.62L104.58-0.62L104.58-0.62Q103.20-1.46 102.47-2.81L102.47-2.81L102.47-2.81Q101.75-4.15 101.75-5.68L101.75-5.68L101.75-5.68Q101.75-6.91 102.19-8.06L102.19-8.06L102.19-8.06Q102.64-9.20 103.38-10.05L103.38-10.05L103.38-10.05Q104.12-10.90 105.04-11.54L105.04-11.54L105.04-11.54Q105.97-12.17 106.96-12.50L106.96-12.50L106.96-12.50Q107.94-12.83 108.87-12.83L108.87-12.83L108.87-12.83Q110.45-12.83 111.50-12.13L111.50-12.13L111.50-12.13Q111.61-12.03 111.70-11.77L111.70-11.77L111.70-11.77Q111.80-11.51 111.80-11.31ZM115.93-16.33L115.93-16.33L115.93-16.33Q115.50-16.76 115.50-17.37L115.50-17.37L115.50-17.37Q115.50-17.99 115.93-18.41L115.93-18.41L115.93-18.41Q116.35-18.84 116.97-18.84L116.97-18.84L116.97-18.84Q117.58-18.84 118.01-18.41L118.01-18.41L118.01-18.41Q118.43-17.99 118.43-17.37L118.43-17.37L118.43-17.37Q118.43-16.76 118.01-16.33L118.01-16.33L118.01-16.33Q117.58-15.91 116.97-15.91L116.97-15.91L116.97-15.91Q116.35-15.91 115.93-16.33ZM118.32-10.49L118.32-9.52L118.32-3.40L118.32-3.40Q118.32-1.70 118.46-1.23L118.46-1.23L118.46-1.23Q118.52-1.03 119.20-0.89L119.20-0.89L119.20-0.89Q119.88-0.76 120.31-0.76L120.31-0.76L120.31-0.76Q120.40-0.64 120.40-0.34L120.40-0.34L120.40-0.34Q120.41-0.03 120.31 0.09L120.31 0.09L120.31 0.09Q117.30-0.06 117.17-0.06L117.17-0.06L117.17-0.06Q116.66-0.06 116.18-0.04L116.18-0.04L116.18-0.04Q115.71-0.01 115.09 0.03L115.09 0.03L115.09 0.03Q114.48 0.07 114.07 0.09L114.07 0.09L114.07 0.09Q113.96-0.03 113.97-0.34L113.97-0.34L113.97-0.34Q113.98-0.64 114.07-0.76L114.07-0.76L114.07-0.76Q114.49-0.76 115.17-0.89L115.17-0.89L115.17-0.89Q115.85-1.03 115.91-1.23L115.91-1.23L115.91-1.23Q116.03-1.60 116.06-3.40L116.06-3.40L116.06-8.85L116.06-8.85Q116.06-10.02 115.91-10.37L115.91-10.37L115.91-10.37Q115.83-10.59 115.36-10.72L115.36-10.72L115.36-10.72Q114.89-10.85 114.57-10.88L114.57-10.88L114.57-10.88Q114.26-10.90 114.01-10.90L114.01-10.90L114.01-10.90Q113.95-10.96 113.94-11.25L113.94-11.25L113.94-11.25Q113.94-11.54 114.01-11.66L114.01-11.66L114.01-11.66Q116.51-12.00 118.20-12.89L118.20-12.89L118.20-12.89Q118.30-12.89 118.41-12.71L118.41-12.71L118.41-12.71Q118.52-12.54 118.52-12.42L118.52-12.42L118.52-12.42Q118.32-10.99 118.32-10.49L118.32-10.49ZM130.78-19.16L130.78-19.16L130.78-19.16Q131.25-19.16 131.51-18.96L131.51-18.96L131.51-18.96Q131.76-18.76 131.80-18.61L131.80-18.61L131.80-18.61Q131.84-18.46 131.84-18.31L131.84-18.31L131.84-18.31Q131.84-17.89 130.79-16.93L130.79-16.93L130.79-16.93Q129.74-15.98 128.66-15.23L128.66-15.23L128.66-15.23Q127.57-14.47 127.41-14.47L127.41-14.47L127.41-14.47Q127.15-14.47 127.15-14.85L127.15-14.85L127.15-14.85Q127.15-14.99 128.22-16.52L128.22-16.52L128.22-16.52Q129.29-18.05 129.99-18.93L129.99-18.93L129.99-18.93Q130.02-18.96 130.11-19.01L130.11-19.01L130.11-19.01Q130.21-19.06 130.40-19.11L130.40-19.11L130.40-19.11Q130.59-19.16 130.78-19.16ZM128.03-11.89L128.03-11.89L128.03-11.89Q126.84-11.89 126.05-11.13L126.05-11.13L126.05-11.13Q125.26-10.37 124.94-9.27L124.94-9.27L124.94-9.27Q124.63-8.17 124.63-6.83L124.63-6.83L124.63-6.83Q124.63-5.35 125.08-3.99L125.08-3.99L125.08-3.99Q125.54-2.64 126.49-1.70L126.49-1.70L126.49-1.70Q127.44-0.76 128.70-0.76L128.70-0.76L128.70-0.76Q129.89-0.76 130.68-1.52L130.68-1.52L130.68-1.52Q131.47-2.29 131.78-3.38L131.78-3.38L131.78-3.38Q132.10-4.47 132.10-5.80L132.10-5.80L132.10-5.80Q132.10-7.27 131.64-8.64L131.64-8.64L131.64-8.64Q131.18-10.00 130.22-10.95L130.22-10.95L130.22-10.95Q129.27-11.89 128.03-11.89ZM128.35-12.86L128.35-12.86L128.35-12.86Q131.21-12.86 132.91-11.07L132.91-11.07L132.91-11.07Q134.62-9.27 134.62-6.47L134.62-6.47L134.62-6.47Q134.62-3.63 132.84-1.71L132.84-1.71L132.84-1.71Q131.06 0.21 128.41 0.21L128.41 0.21L128.41 0.21Q125.55 0.21 123.83-1.62L123.83-1.62L123.83-1.62Q122.11-3.44 122.11-6.24L122.11-6.24L122.11-6.24Q122.11-9.07 123.90-10.96L123.90-10.96L123.90-10.96Q125.68-12.86 128.35-12.86ZM145.27-12.83L145.27-12.83L145.27-12.83Q146.22-12.83 146.88-12.58L146.88-12.58L146.88-12.58Q147.54-12.33 147.96-11.88L147.96-11.88L147.96-11.88Q148.39-11.43 148.63-10.63L148.63-10.63L148.63-10.63Q148.87-9.84 148.96-8.91L148.96-8.91L148.96-8.91Q149.05-7.97 149.05-6.62L149.05-6.62L149.05-3.40L149.05-3.40Q149.05-1.70 149.19-1.23L149.19-1.23L149.19-1.23Q149.25-1.03 149.93-0.89L149.93-0.89L149.93-0.89Q150.62-0.76 151.04-0.76L151.04-0.76L151.04-0.76Q151.13-0.64 151.14-0.34L151.14-0.34L151.14-0.34Q151.14-0.03 151.04 0.09L151.04 0.09L151.04 0.09Q148.04-0.06 147.91-0.06L147.91-0.06L147.91-0.06Q147.39-0.06 146.92-0.04L146.92-0.04L146.92-0.04Q146.44-0.01 145.83 0.03L145.83 0.03L145.83 0.03Q145.21 0.07 144.80 0.09L144.80 0.09L144.80 0.09Q144.70-0.03 144.70-0.34L144.70-0.34L144.70-0.34Q144.71-0.64 144.80-0.76L144.80-0.76L144.80-0.76Q145.22-0.76 145.91-0.89L145.91-0.89L145.91-0.89Q146.59-1.03 146.65-1.23L146.65-1.23L146.65-1.23Q146.79-1.70 146.79-3.40L146.79-3.40L146.79-6.33L146.79-6.33Q146.79-9.10 146.20-10.11L146.20-10.11L146.20-10.11Q145.61-11.13 143.92-11.13L143.92-11.13L143.92-11.13Q143.42-11.13 142.74-10.78L142.74-10.78L142.74-10.78Q142.06-10.43 141.60-10.05L141.60-10.05L141.60-10.05Q141.14-9.67 141.14-9.52L141.14-9.52L141.14-3.40L141.14-3.40Q141.14-1.70 141.28-1.23L141.28-1.23L141.28-1.23Q141.34-1.03 142.02-0.89L142.02-0.89L142.02-0.89Q142.71-0.76 143.13-0.76L143.13-0.76L143.13-0.76Q143.22-0.64 143.23-0.34L143.23-0.34L143.23-0.34Q143.23-0.03 143.13 0.09L143.13 0.09L143.13 0.09Q140.13-0.06 140.00-0.06L140.00-0.06L140.00-0.06Q139.48-0.06 139.01-0.04L139.01-0.04L139.01-0.04Q138.53-0.01 137.92 0.03L137.92 0.03L137.92 0.03Q137.30 0.07 136.89 0.09L136.89 0.09L136.89 0.09Q136.79-0.03 136.79-0.34L136.79-0.34L136.79-0.34Q136.80-0.64 136.89-0.76L136.89-0.76L136.89-0.76Q137.31-0.76 138.00-0.89L138.00-0.89L138.00-0.89Q138.68-1.03 138.74-1.23L138.74-1.23L138.74-1.23Q138.88-1.70 138.88-3.40L138.88-3.40L138.88-8.73L138.88-8.73Q138.88-10.02 138.74-10.37L138.74-10.37L138.74-10.37Q138.65-10.59 138.18-10.72L138.18-10.72L138.18-10.72Q137.71-10.85 137.40-10.88L137.40-10.88L137.40-10.88Q137.08-10.90 136.83-10.90L136.83-10.90L136.83-10.90Q136.77-10.96 136.77-11.25L136.77-11.25L136.77-11.25Q136.76-11.54 136.83-11.66L136.83-11.66L136.83-11.66Q139.34-12.00 141.02-12.89L141.02-12.89L141.02-12.89Q141.12-12.89 141.23-12.71L141.23-12.71L141.23-12.71Q141.34-12.54 141.34-12.42L141.34-12.42L141.34-12.42Q141.17-11.19 141.17-10.75L141.17-10.75L141.17-10.75Q141.17-10.63 141.23-10.63L141.23-10.63L141.23-10.63Q141.25-10.63 141.31-10.69L141.31-10.69L141.31-10.69Q141.90-11.34 143.12-12.08L143.12-12.08L143.12-12.08Q144.33-12.83 145.27-12.83Z" fill="#0b530b"></path></g></g><style>text {
  font-size: 64px;
  font-family: Arial Black;
  dominant-baseline: central;
  text-anchor: middle;
}</style></svg>